 <svg version="1.0" xmlns="http://www.w3.org/2000/svg" width="700.000000pt" height="700.000000pt" viewBox="0 0 700.000000 700.000000" preserveAspectRatio="xMidYMid meet">
<metadata>
Created by potrace 1.12, written by Peter Selinger 2001-2015
</metadata>
<g transform="translate(0.000000,700.000000) scale(0.100000,-0.100000)" fill="#000000" stroke="none">
<path d="M1432 4779 c-92 -18 -160 -66 -317 -223 -156 -156 -172 -179 -209
-303 -31 -102 -16 -232 41 -348 20 -39 258 -283 1126 -1153 606 -607 1120
-1114 1142 -1127 94 -56 152 -70 285 -69 132 0 170 8 268 58 62 32 2233 2201
2274 2273 64 109 85 259 52 366 -37 124 -53 147 -209 303 -132 134 -159 156
-229 190 l-80 39 -125 0 c-145 -1 -193 -16 -291 -91 -30 -23 -413 -401 -850
-838 -437 -438 -802 -796 -810 -796 -8 0 -388 373 -845 828 -898 897 -865 867
-998 893 -59 11 -165 10 -225 -2z"></path>
</g>
</svg>